<svg width="114" height="21" viewBox="0 0 114 21" fill="none" xmlns="http://www.w3.org/2000/svg">
<path d="M0.5 17.76V14.76H4.52V16.53L5.51 17.52H11.72L12.74 16.5V13.02L11.75 12.03H3.8L0.56 8.79V3.24L3.8 -1.43051e-06H13.28L16.52 3.24V6.27H12.5V4.47L11.51 3.48H5.57L4.58 4.47V7.56L5.57 8.55H13.52L16.76 11.79V17.7L13.46 21H3.74L0.5 17.76ZM20.0516 -1.43051e-06H24.1316V8.79H27.3116L32.3816 -1.43051e-06H36.9716L30.8216 10.47L37.4816 21H32.8016L27.2816 12.27H24.1316V21H20.0516V-1.43051e-06ZM44.6731 12.42L37.2031 -1.43051e-06H41.6731L46.6831 8.61H46.7431L51.7531 -1.43051e-06H56.2231L48.7531 12.42V21H44.6731V12.42ZM58.1668 -1.43051e-06H71.3368L74.5468 3.24V10.59L71.3068 13.86H62.2468V21H58.1668V-1.43051e-06ZM69.4768 10.44L70.5268 9.39V4.47L69.4768 3.42H62.2468V10.44H69.4768ZM77.5613 -1.43051e-06H92.7413V3.45H81.6413V8.76H91.8713V12.15H81.6413V17.55H92.7413V21H77.5613V-1.43051e-06ZM101.635 -1.43051e-06H105.355L113.035 21H108.895L107.185 16.35H99.8047L98.0947 21H93.9547L101.635 -1.43051e-06ZM106.285 12.99L103.495 5.01H103.435L100.735 12.99H106.285Z" fill="#1D245C"/>
</svg>
