<svg width="426" height="68" viewBox="0 0 426 68" fill="none" xmlns="http://www.w3.org/2000/svg">
<path d="M64.2969 41.8906H0.03125V0.640625H64.2969V23.6562H49.1094V15.8281H15.2188V26.7031H64.2969V41.8906ZM49.1094 43.5312H64.2969V68H0.03125V44.9844H15.2188V52.8125H49.1094V43.5312ZM87.4062 0.640625V68H72.2188V0.640625H87.4062ZM89.0469 29.9844L90.0312 28.9062C104.906 12.75 113.75 3.32812 116.562 0.640625H136.484L105.031 34.3438L136.484 68H116.562C113.75 65.3125 104.906 55.9062 90.0312 39.7812L89.0469 38.7031V29.9844ZM175.859 21.7344C167.391 9.98437 162.219 2.96875 160.344 0.6875H144.781L168.5 33.1719L175.859 21.7344ZM177.5 21.7344C186.031 9.98437 191.234 2.96875 193.109 0.6875H208.672L183.641 34.9531L183.594 35V68H168.922V35L177.5 21.7344ZM231.781 0.640625V68H216.594V0.640625H231.781ZM233.422 0.640625H280.859V41.8906H233.422V26.7031H265.672V15.8281H233.422V0.640625ZM303.969 51.1719H288.781V0.640625H353.047V15.8281H303.969V26.7031H353.047V41.8906H303.969V51.1719ZM288.781 52.8125H353.047V68H288.781V52.8125ZM410.047 25.0625V15.8281H376.156V25.0625H360.969V0.640625H425.234V25.0625H410.047ZM360.969 26.7031H425.234V68H410.047V41.8906H376.156V68H360.969V26.7031Z" fill="black"/>
</svg>
